<svg xmlns="http://www.w3.org/2000/svg" viewBox="0 0 400 300" width="406" height="306" class="illustration styles_illustrationTablet__1DWOa"><g id="_526_email_campaign_flatline" data-name="#526_email_campaign_flatline"><polygon points="91.53 129.59 199.49 61.38 307.45 129.59 307.45 229.11 91.53 229.11 91.53 129.59" fill="#e6e7e8"></polygon><path d="M307.45,229.61H91.53a.5.5,0,0,1-.5-.5V129.59a.48.48,0,0,1,.23-.42L199.22,61a.51.51,0,0,1,.53,0l108,68.22a.49.49,0,0,1,.24.42v99.52A.5.5,0,0,1,307.45,229.61ZM92,228.61H307V129.87L199.49,62,92,129.87Z" fill="#231f20"></path><path d="M225.79,102.8c3.59-5.93,4.5-13.14,4.17-20.06a48.88,48.88,0,0,0-5.83-21.65,19.55,19.55,0,0,0-6.24-7.16c-3.24-2-5.45-.65-8.62-1.19-2.68-.46-5.48-2.37-8.45-2.86A27.44,27.44,0,0,0,181.12,54c-10.16,6.87-14.85,20-25.35,26.38-10.29,6.22-23.46,4.35-35,7.79a39,39,0,0,0-13.36,7.06,23.31,23.31,0,0,0-6.54,7.81c-2.71,5.66-2,12.4,0,18.37,2,6.14,5.38,12,10.62,15.81,4.39,3.17,9.78,4.63,15.11,5.59,7.25,1.31,14.76,1.8,22,.23A32.06,32.06,0,0,0,163.07,136c1.78-1.59,2.76-3.76,4.42-5.34,2.29-2.17,5.86-3.5,8.54-5.16,4.19-2.61,8.39-5.39,13.17-6.63C201.34,115.71,218.47,114.85,225.79,102.8Z" fill="#fff"></path><path d="M138.93,144.52a70.13,70.13,0,0,1-12.44-1.22c-4.62-.83-10.53-2.23-15.3-5.66s-8.48-9-10.78-16c-1.64-5-3-12.37.07-18.71a23.39,23.39,0,0,1,6.66-8,39.39,39.39,0,0,1,13.51-7.14,81.75,81.75,0,0,1,14.23-2.44c7.46-.82,14.51-1.6,20.65-5.31,5.36-3.24,9.27-8.4,13.06-13.39,3.59-4.73,7.31-9.62,12.27-13a27.89,27.89,0,0,1,20-4.23A19.9,19.9,0,0,1,205.46,51a19.08,19.08,0,0,0,3.89,1.33,13.21,13.21,0,0,0,3.06.07,8.56,8.56,0,0,1,5.72,1.19,19.69,19.69,0,0,1,6.4,7.31,49,49,0,0,1,5.89,21.86c.39,8.2-1,15-4.24,20.31h0c-6,9.82-18.28,12.33-29.14,14.55-2.74.56-5.32,1.08-7.73,1.71-4.31,1.11-8.21,3.55-12,5.91l-1,.65c-1,.59-2,1.14-3.05,1.68a23.67,23.67,0,0,0-5.41,3.43,17.08,17.08,0,0,0-2,2.47,16.74,16.74,0,0,1-2.42,2.88,32.33,32.33,0,0,1-14.74,7.22A45.28,45.28,0,0,1,138.93,144.52ZM196.26,50a26.59,26.59,0,0,0-14.88,4.46c-4.85,3.27-8.51,8.1-12.06,12.77-3.84,5.06-7.81,10.3-13.32,13.62-6.31,3.82-13.79,4.64-21,5.44a80.09,80.09,0,0,0-14.06,2.4,38.56,38.56,0,0,0-13.2,7,22.62,22.62,0,0,0-6.42,7.65c-2.9,6.06-1.61,13.15,0,18,2.24,6.89,5.85,12.27,10.44,15.58s10.41,4.7,14.93,5.52c8.42,1.51,15.54,1.59,21.79.23a31.4,31.4,0,0,0,14.32-7,16,16,0,0,0,2.29-2.73,17.53,17.53,0,0,1,2.13-2.6,24.38,24.38,0,0,1,5.62-3.58c1.07-.55,2.07-1.07,3-1.64l1.06-.66c3.83-2.39,7.79-4.87,12.24-6,2.44-.63,5-1.16,7.77-1.72,10.69-2.17,22.79-4.64,28.55-14.12l.39.24-.39-.24c3.1-5.12,4.48-11.78,4.1-19.8a48,48,0,0,0-5.77-21.45,18.92,18.92,0,0,0-6.08-7,7.59,7.59,0,0,0-5.19-1,14.58,14.58,0,0,1-3.27-.09,19.12,19.12,0,0,1-4.08-1.39,19.32,19.32,0,0,0-4.36-1.47A27.11,27.11,0,0,0,196.26,50Z" fill="#231f20"></path><path d="M266.59,93l-5.26,19.8L274,115.06l7.22-26.45s-11.26-8.62-13-8.68S266.59,93,266.59,93Z" fill="#fff"></path><path d="M274,115.56h-.09l-12.65-2.23a.49.49,0,0,1-.39-.62L266.09,93c0-2.12,0-11.84,1.48-13.27a.86.86,0,0,1,.66-.27c1.79.06,11.37,7.33,13.28,8.78a.51.51,0,0,1,.18.53l-7.23,26.45A.49.49,0,0,1,274,115.56Zm-12-3.13,11.66,2.06,7-25.69c-5.41-4.12-11.47-8.34-12.43-8.37-.71.53-1.15,7-1.11,12.6a.51.51,0,0,1,0,.13Z" fill="#231f20"></path><path d="M252.9,80.05s1.79,4,4.37,4.65,8.19-2.12,8.84-1.76S281.56,94.38,283,94.71s4.09-3.16,5.22-7.31c0,0-14.4-9.82-15.34-10.86s-2.06-7.26-3.46-9.54Z" fill="#fff"></path><path d="M283.15,95.24a1.65,1.65,0,0,1-.31,0c-.9-.22-5.62-3.57-13.47-9.3-1.77-1.3-3.31-2.41-3.5-2.53s-1.2.36-2,.64c-2.09.69-4.95,1.64-6.69,1.18-2.78-.74-4.62-4.77-4.7-4.94a.48.48,0,0,1,.14-.59l16.49-13a.52.52,0,0,1,.4-.1.54.54,0,0,1,.34.23,27.14,27.14,0,0,1,2,5.57,17,17,0,0,0,1.38,3.89c.66.73,9.48,6.85,15.25,10.79a.48.48,0,0,1,.2.54C287.65,91.26,285.1,95.24,283.15,95.24ZM265.94,82.41a.83.83,0,0,1,.41.09c.21.11,1.26.88,3.61,2.59,4,2.89,12.17,8.89,13.11,9.14s3.32-2.51,4.53-6.62c-2.43-1.65-14.23-9.73-15.13-10.74-.51-.56-.94-2-1.61-4.28a35.23,35.23,0,0,0-1.63-4.83L253.52,80.19c.49.94,2,3.53,3.87,4,1.46.38,4.27-.55,6.12-1.16A9.62,9.62,0,0,1,265.94,82.41Z" fill="#231f20"></path><path d="M268.64,70.73a5.37,5.37,0,0,0,.57,3.07c.81,1.45,4.4,3.38,4.4,3.38l2.5-5-4.9-3.54Z" fill="#231f20"></path><path d="M273.61,77.68a.46.46,0,0,1-.23-.06c-.39-.2-3.75-2.05-4.6-3.58a5.87,5.87,0,0,1-.63-3.38.48.48,0,0,1,.17-.31l2.57-2.12a.5.5,0,0,1,.62,0l4.89,3.54a.5.5,0,0,1,.16.62l-2.5,5a.5.5,0,0,1-.3.25A.39.39,0,0,1,273.61,77.68ZM269.12,71a4.84,4.84,0,0,0,.53,2.56c.52,1,2.59,2.27,3.75,2.94l2.07-4.18-4.24-3.07Z" fill="#231f20"></path><path d="M284.32,84.75s1.31-4.13-1-4.42a2.12,2.12,0,0,0-3.2-1.7s-.74-3.07-3.16-2.45-4.34,6.41-4,7.87,2.22.57,3.17-.8c0,0-1.23,2.28-.41,2.88,1.2.88,2.46-.68,3.48-1.82,0,0-1.51,2.67.71,2.91,1.71.19,3.3-3.26,3.3-3.26Z" fill="#fff"></path><path d="M280,87.73h-.19a1.66,1.66,0,0,1-1.66-1.65c-.83.73-1.79,1.19-2.78.46a1.54,1.54,0,0,1-.45-1.57,2.17,2.17,0,0,1-1.45.31,1.32,1.32,0,0,1-1.05-1.11c-.37-1.69,1.62-7.75,4.38-8.46a2.57,2.57,0,0,1,2.06.26,4.1,4.1,0,0,1,1.54,2,2.52,2.52,0,0,1,2,.12,3,3,0,0,1,1.28,1.81,1.85,1.85,0,0,1,1.05.79c.89,1.39.12,3.92,0,4.21a.47.47,0,0,1-.31.32.51.51,0,0,1-.45-.06l-.68-.47C282.81,85.71,281.53,87.73,280,87.73Zm-.85-3.92a.47.47,0,0,1,.3.1.51.51,0,0,1,.14.65c-.22.39-.6,1.35-.36,1.82,0,.07.14.29.69.35,1,.11,2.32-2,2.79-3a.51.51,0,0,1,.32-.27.48.48,0,0,1,.42.07l.56.39a4.21,4.21,0,0,0-.09-2.71.91.91,0,0,0-.69-.4.51.51,0,0,1-.43-.43,2.19,2.19,0,0,0-.86-1.43,1.89,1.89,0,0,0-1.65.12.51.51,0,0,1-.42,0,.52.52,0,0,1-.27-.33,3.52,3.52,0,0,0-1.26-1.94,1.62,1.62,0,0,0-1.29-.14c-2.13.54-3.92,6-3.65,7.27.07.31.2.34.27.35a2.75,2.75,0,0,0,2-1.33.5.5,0,0,1,.67-.14.51.51,0,0,1,.18.66c-.51,1-.79,2.08-.56,2.25.7.51,1.53-.31,2.61-1.51l.21-.24A.51.51,0,0,1,279.15,83.81Z" fill="#231f20"></path><path d="M273.63,72.36s-1.37-2.38-2.81-.29-3.17,6-.77,6.42S274.25,74.43,273.63,72.36Z" fill="#fff"></path><path d="M270.36,79a2.56,2.56,0,0,1-.39,0,1.8,1.8,0,0,1-1.44-1.08c-.7-1.67.85-4.64,1.88-6.12a2.07,2.07,0,0,1,1.74-1.08c1.1.05,1.83,1.27,1.91,1.4l.05.11a7,7,0,0,1-1.55,5.65A3,3,0,0,1,270.36,79Zm1.72-7.31c-.33,0-.65.35-.85.64-1.21,1.75-2.2,4.16-1.78,5.17a.81.81,0,0,0,.68.48,1.93,1.93,0,0,0,1.68-.79,6.06,6.06,0,0,0,1.35-4.65c-.16-.26-.61-.83-1.06-.85Z" fill="#231f20"></path><path d="M266.58,94.34s-1.58-7.55-1.73-8.9c-.25-2.29.29-5.87,2.3-6.43s6.61-1.09,5.85.93c-.69,1.84-4.72,2.19-4.72,2.19s2.78,2.8,2.36,5.59" fill="#fff"></path><path d="M266.58,94.84a.5.5,0,0,1-.49-.39c-.06-.31-1.58-7.6-1.73-9-.26-2.34.24-6.29,2.66-7,1.26-.35,5.11-1.07,6.24.16a1.3,1.3,0,0,1,.21,1.42c-.57,1.54-2.87,2.15-4.2,2.39.84,1.06,2.19,3.15,1.86,5.29a.5.5,0,1,1-1-.15c.38-2.51-2.19-5.14-2.21-5.16a.52.52,0,0,1-.12-.53.5.5,0,0,1,.43-.32c1-.09,3.82-.6,4.29-1.87.11-.27,0-.35,0-.39-.53-.59-3.3-.41-5.24.12-1.63.45-2.17,3.71-1.93,5.89.15,1.31,1.71,8.79,1.72,8.86a.49.49,0,0,1-.39.59Z" fill="#231f20"></path><path d="M296.11,65.71S279.45,64.06,272.65,68a43.66,43.66,0,0,0-4.9,3.4c-3.69,2.89-7.16,6.17-9.86,8C252.53,83,247.35,83.73,243.82,78c-3-4.89-1.25-7.21,2.81-11.56,2-2.15,6.24-5.7,9.89-9.63a30.91,30.91,0,0,0,5.4-7.4C265,42.93,264.13,33,264.13,33Z" fill="#fff"></path><path d="M250.4,82.69a7,7,0,0,1-1.6-.17,8.54,8.54,0,0,1-5.4-4.24c-3.23-5.24-1.24-7.77,2.86-12.17.86-.92,2.1-2.08,3.54-3.41,2-1.86,4.25-4,6.36-6.22a30.11,30.11,0,0,0,5.31-7.27c3-6.3,2.17-16.1,2.16-16.2a.51.51,0,0,1,.29-.5.49.49,0,0,1,.57.11l32,32.74a.5.5,0,0,1,.09.56.51.51,0,0,1-.5.29c-.17,0-16.58-1.59-23.16,2.24a42.86,42.86,0,0,0-4.84,3.36c-1.51,1.19-3,2.43-4.39,3.62a67.75,67.75,0,0,1-5.5,4.38C255.29,81.73,252.69,82.69,250.4,82.69Zm14.31-48.42c.12,3,.11,10.18-2.33,15.37a31.44,31.44,0,0,1-5.49,7.52c-2.13,2.29-4.4,4.4-6.41,6.27-1.42,1.32-2.66,2.47-3.49,3.36-4,4.25-5.6,6.33-2.74,11a7.64,7.64,0,0,0,4.76,3.8c2.38.52,5.27-.35,8.6-2.58a64.39,64.39,0,0,0,5.41-4.3c1.43-1.2,2.9-2.45,4.42-3.64a44.24,44.24,0,0,1,5-3.45c5.79-3.37,18.27-2.79,22.41-2.48Z" fill="#231f20"></path><path d="M268.64,70.73c-3.69,2.89-8.15,6.72-10.75,8.66-5.94,4.44-9.7,4.91-13.58-.58-4-5.64-1.74-8,2.32-12.36,2-2.15,6.24-5.7,9.89-9.63,0,0,.23,4.09,4.3,9.08A14.18,14.18,0,0,0,268.64,70.73Z" fill="#231f20"></path><path d="M250.36,83.32a5.53,5.53,0,0,1-.92-.07c-2-.31-3.76-1.63-5.54-4.15-4.21-5.95-1.75-8.58,2.31-12.94.91-1,2.15-2.13,3.59-3.46,2-1.86,4.25-4,6.36-6.22a.48.48,0,0,1,.53-.13.5.5,0,0,1,.33.44s.29,4,4.19,8.79a13.8,13.8,0,0,0,7.52,4.66.52.52,0,0,1,.4.37.54.54,0,0,1-.18.52c-1.7,1.33-3.55,2.85-5.35,4.32-2.06,1.69-4,3.29-5.41,4.34C255,82.2,252.5,83.32,250.36,83.32Zm5.82-25.41c-1.91,2-3.91,3.86-5.7,5.52-1.42,1.32-2.66,2.47-3.49,3.36-4,4.31-6,6.44-2.27,11.73,1.61,2.28,3.16,3.47,4.87,3.74,2.07.32,4.53-.68,8-3.27,1.39-1,3.33-2.63,5.38-4.31,1.52-1.25,3.08-2.53,4.56-3.71a14.86,14.86,0,0,1-7.1-4.76A20,20,0,0,1,256.18,57.91Z" fill="#231f20"></path><path d="M300.73,64.3c-3.73,3.35-12,.56-20.05-6.25a57.69,57.69,0,0,1-5.8-5.64A58,58,0,0,1,270,46.14c-6-8.82-7.87-17.36-4.11-20.73,4.64-4.17,16.22,1.15,25.85,11.89S305.39,60.12,300.73,64.3Z" fill="#8c8c8c"></path><path d="M270.08,24c5.67,0,14.23,5.06,21.63,13.31,9.64,10.74,13.68,22.82,9,27a6.13,6.13,0,0,1-4.22,1.42c-4.23,0-10.06-2.81-15.83-7.67a57.69,57.69,0,0,1-5.8-5.64A58,58,0,0,1,270,46.14c-6-8.82-7.87-17.36-4.11-20.73A6.14,6.14,0,0,1,270.08,24m0-1h0a7.08,7.08,0,0,0-4.89,1.68c-4.07,3.65-2.48,12.5,3.95,22A60.73,60.73,0,0,0,280,58.82c6,5,12,7.9,16.47,7.9A7.08,7.08,0,0,0,301.4,65c2.57-2.3,3-6.6,1.13-12.1a49,49,0,0,0-10.07-16.31C285,28.35,276.24,23,270.08,23Z" fill="#231f20"></path><path d="M287.33,49.73l-6.65,8.32a57.69,57.69,0,0,1-5.8-5.64A58,58,0,0,1,270,46.14l9.62-5.91Z" fill="#fff"></path><ellipse cx="283.44" cy="45" rx="2.85" ry="6.12" transform="translate(35.87 190.15) rotate(-39.4)" fill="#231f20"></ellipse><path d="M286.31,50.55c-1.57,0-3.69-1.27-5.46-3.43a11.17,11.17,0,0,1-2.2-4.06c-.37-1.44-.16-2.57.59-3.18s1.89-.6,3.23,0A11,11,0,0,1,286,42.87h0c2.36,2.87,3.07,6.05,1.62,7.25A2.11,2.11,0,0,1,286.31,50.55ZM280.6,40.43a1.12,1.12,0,0,0-.73.22c-.42.35-.51,1.14-.25,2.16a10,10,0,0,0,2,3.68c2.1,2.56,4.52,3.56,5.38,2.85s.35-3.28-1.75-5.84A10.15,10.15,0,0,0,282,40.82,3.5,3.5,0,0,0,280.6,40.43Z" fill="#231f20"></path><path d="M279.15,84.81a.47.47,0,0,1-.25-.07.49.49,0,0,1-.18-.68A12.09,12.09,0,0,1,281,81.33a.5.5,0,1,1,.64.76,11.67,11.67,0,0,0-2,2.48A.51.51,0,0,1,279.15,84.81Z" fill="#231f20"></path><path d="M276.08,83.75H276a.5.5,0,0,1-.39-.59A6.37,6.37,0,0,1,278,79.6a.5.5,0,0,1,.6.8,5.43,5.43,0,0,0-2,2.95A.51.51,0,0,1,276.08,83.75Z" fill="#231f20"></path><path d="M283.16,84.46a.47.47,0,0,1-.28-.09.5.5,0,0,1-.12-.7l.68-1a.52.52,0,0,1,.7-.12.51.51,0,0,1,.12.7l-.69,1A.48.48,0,0,1,283.16,84.46Z" fill="#231f20"></path><path d="M251.6,82.31a.49.49,0,0,1-.3-.1c-4.42-3.36-7.16-7.44-7.7-11.48l0-.11a.5.5,0,0,1,.22-.57.49.49,0,0,1,.69.16,1,1,0,0,1,.1.39c.51,3.78,3.1,7.62,7.32,10.81a.5.5,0,0,1-.31.9Z" fill="#fff"></path><path d="M249.13,66.35a.48.48,0,0,1-.36-.17.49.49,0,0,1,0-.7l5.38-5a.48.48,0,0,1,.7,0,.49.49,0,0,1,0,.7l-5.38,5A.48.48,0,0,1,249.13,66.35Z" fill="#fff"></path><path d="M249.87,67.55a.54.54,0,0,1-.37-.16.51.51,0,0,1,0-.71l5.38-5a.5.5,0,0,1,.7,0,.5.5,0,0,1,0,.71l-5.37,5A.53.53,0,0,1,249.87,67.55Z" fill="#fff"></path><path d="M250.72,68.93a.46.46,0,0,1-.36-.16.49.49,0,0,1,0-.7l5.38-5a.48.48,0,0,1,.7,0,.49.49,0,0,1,0,.7l-5.38,5A.47.47,0,0,1,250.72,68.93Z" fill="#fff"></path><path d="M161.72,146.06l-2.51,55.42s34.25.41,53.95-7.82A129.57,129.57,0,0,1,219,178.17c2.89-5.84,15.3-14.45,11.4-36.81,0,0,29.24,18.5,37.48,10s12.36-48.2,12.36-48.2l-17.12-5.5-7.78,24.48S206,98.27,194.5,95.25c-4.27-1.12-17.54,5.94-32.75,15.71" fill="#8c8c8c"></path><path d="M193.44,111.87s7.93,24.64,9.29,35.07,1.56,27.67,1.56,27.67,12.55-38.44,11-62.18Z" fill="#231f20"></path><path d="M204.29,175.06h-.06a.44.44,0,0,1-.38-.43c0-.17-.22-17.34-1.56-27.62s-9.19-34.75-9.27-35a.45.45,0,0,1,.43-.58l21.84.56a.43.43,0,0,1,.43.41c1.55,23.55-10.88,62-11,62.35A.44.44,0,0,1,204.29,175.06Zm-10.24-62.73c1.21,3.82,7.89,25.1,9.12,34.55,1,7.86,1.39,19.71,1.51,25,2.73-9,11.35-39.17,10.19-59Z" fill="#231f20"></path><path d="M153.49,230.9H248l-34.81-37.24-53.95,7.82s-6.46,14.62-5.85,24.88C153.43,227.57,153.46,229.12,153.49,230.9Z" fill="#231f20"></path><path d="M248,231.4H153.49a.49.49,0,0,1-.5-.49c0-1.68-.06-3.29-.13-4.52-.61-10.27,5.62-24.51,5.89-25.12a.52.52,0,0,1,.38-.29l54-7.82a.52.52,0,0,1,.44.16l34.81,37.24a.5.5,0,0,1-.37.84Zm-94-1h92.84L213,194.19l-53.42,7.74c-.85,2-6.26,15.11-5.7,24.4C153.93,227.46,154,228.89,154,230.4Z" fill="#231f20"></path><path d="M212.57,98.62l2.71,13.81s.07,8-8.79,7.23a17.67,17.67,0,0,1-13.05-7.79l-3.59-24.12a43.64,43.64,0,0,0-1.06-13.09c10.19-2.11,16.77-11.34,16.77-11.34s4.51,4.6,6.35,6a21,21,0,0,1,4,3.57c1.93,2.39,2.5,5.73,3,8.68a59,59,0,0,1,.93,10.61C219.68,98.93,212.57,98.62,212.57,98.62Z" fill="#fff"></path><path d="M207.64,120.17c-.38,0-.78,0-1.19,0a18,18,0,0,1-13.4-8,.58.58,0,0,1-.06-.17s-3.58-24-3.59-24.12a6.11,6.11,0,0,1,0-1.21,40.58,40.58,0,0,0-1.06-11.86.41.41,0,0,1,.06-.34.46.46,0,0,1,.29-.2c9.89-2,16.42-11.07,16.48-11.16a.47.47,0,0,1,.34-.19.43.43,0,0,1,.36.14c.05,0,4.51,4.59,6.31,5.94a21.49,21.49,0,0,1,4,3.64c2,2.52,2.61,6,3.09,8.89a59.19,59.19,0,0,1,.94,10.69,6.59,6.59,0,0,1-2,4.92,8.4,8.4,0,0,1-5.17,2l2.61,13.27a8.42,8.42,0,0,1-2.44,5.88A8,8,0,0,1,207.64,120.17Zm-13.76-8.46a17.38,17.38,0,0,0,12.65,7.5c2.64.22,4.7-.33,6.13-1.65a7.62,7.62,0,0,0,2.16-5.13l-2.7-13.72a.5.5,0,0,1,.1-.39.43.43,0,0,1,.37-.16,7.81,7.81,0,0,0,5.08-1.75,5.77,5.77,0,0,0,1.67-4.26,58.36,58.36,0,0,0-.93-10.53c-.49-2.87-1-6.14-2.9-8.46a20.87,20.87,0,0,0-3.87-3.49c-1.56-1.17-4.91-4.51-6-5.65-1.43,1.85-7.42,9-16.27,11a40.58,40.58,0,0,1,1,11.65,6.22,6.22,0,0,0,0,1h0S190.33,87.92,193.88,111.71Z" fill="#231f20"></path><path d="M213.78,105.42s-5.56,1.31-9.88-1.74-4.5-6.92-4.5-6.92,6.84,2.91,13.17,1.86Z" fill="#231f20"></path><path d="M210.87,106.15a12.49,12.49,0,0,1-7.22-2.11C199.2,100.9,199,97,199,96.78a.41.41,0,0,1,.19-.38.42.42,0,0,1,.42-.05c.07,0,6.81,2.85,12.93,1.83a.44.44,0,0,1,.5.36l1.22,6.8a.44.44,0,0,1-.34.51A13.71,13.71,0,0,1,210.87,106.15ZM200,97.45a10.06,10.06,0,0,0,4.19,5.87c3.45,2.44,7.79,2,9.12,1.75l-1.06-5.95C207.1,99.83,201.86,98.15,200,97.45Z" fill="#231f20"></path><path d="M205.19,75.07s5.71,5.8,4.87,7.15-3.94,1.16-3.94,1.16" fill="#fff"></path><path d="M206.6,83.83h-.51a.44.44,0,0,1-.41-.47.45.45,0,0,1,.47-.42c.79,0,3,0,3.54-.94.34-.56-1.9-3.65-4.81-6.61a.44.44,0,1,1,.63-.62c1.79,1.82,5.85,6.21,4.93,7.7C209.68,83.68,207.59,83.83,206.6,83.83Z" fill="#231f20"></path><ellipse cx="212.76" cy="76.81" rx="0.78" ry="1.46" transform="translate(-11.83 49.86) rotate(-13.01)" fill="#231f20"></ellipse><ellipse cx="200.02" cy="78.11" rx="0.78" ry="1.46" transform="translate(-12.45 47.02) rotate(-13.01)" fill="#231f20"></ellipse><path d="M193.12,79.79c-1.39-2.25-4.64-2.56-6.91-1.65a4,4,0,0,0-2.65,3.62,7.45,7.45,0,0,0,.52,2.87,15.09,15.09,0,0,0,2.68,4.69A5.4,5.4,0,0,0,188.85,91a2.77,2.77,0,0,0,3-.78" fill="#fff"></path><path d="M189.79,91.64a3,3,0,0,1-1.1-.21,6,6,0,0,1-2.28-1.81,15.7,15.7,0,0,1-2.76-4.83,8,8,0,0,1-.55-3.06,4.46,4.46,0,0,1,2.94-4c2.5-1,6-.6,7.47,1.83a.46.46,0,0,1-.78.48c-1.25-2-4.2-2.33-6.35-1.47A3.58,3.58,0,0,0,184,81.78a7.11,7.11,0,0,0,.49,2.7,14.7,14.7,0,0,0,2.6,4.55A5,5,0,0,0,189,90.57a2.34,2.34,0,0,0,2.54-.67.46.46,0,1,1,.65.64A3.43,3.43,0,0,1,189.79,91.64Z" fill="#231f20"></path><path d="M210.79,85.18l-6.69.65s1.39,10.34,4.4,10.06S211.52,88.14,210.79,85.18Z" fill="#fff"></path><path d="M208.37,96.34c-3.15,0-4.48-8.68-4.71-10.45a.39.39,0,0,1,.09-.33.4.4,0,0,1,.3-.17l6.7-.65a.44.44,0,0,1,.47.33c.57,2.3.76,7.81-.9,10.14a2.44,2.44,0,0,1-1.78,1.12ZM204.6,86.23c.56,3.78,2,9.22,3.77,9.22h.09a1.6,1.6,0,0,0,1.14-.75c1.31-1.85,1.37-6.48.85-9Z" fill="#231f20"></path><path d="M227.53,165.36a.45.45,0,0,1-.38-.69c.07-.13,7.42-12.49.39-38.23a.47.47,0,0,1,.32-.56.45.45,0,0,1,.56.32c7.15,26.16-.18,38.44-.5,39A.44.44,0,0,1,227.53,165.36Z" fill="#231f20"></path><polygon points="91.53 129.59 199.49 207.48 307.45 129.59 307.45 257.37 91.53 257.37 91.53 129.59" fill="#fff"></polygon><path d="M307.45,257.87H91.53a.5.5,0,0,1-.5-.5V129.59a.48.48,0,0,1,.27-.44.49.49,0,0,1,.52,0l107.67,77.67,107.66-77.67a.49.49,0,0,1,.52,0,.49.49,0,0,1,.28.44V257.37A.51.51,0,0,1,307.45,257.87ZM92,256.87H307V130.57L199.78,207.88a.5.5,0,0,1-.59,0L92,130.57Z" fill="#231f20"></path><path d="M91.53,257.87a.5.5,0,0,1-.44-.26.51.51,0,0,1,.19-.68l98.78-56.51a.5.5,0,0,1,.68.19.49.49,0,0,1-.18.68L91.77,257.8A.51.51,0,0,1,91.53,257.87Z" fill="#231f20"></path><path d="M307.45,257.87a.55.55,0,0,1-.25-.07l-98.78-56.51a.5.5,0,0,1-.19-.68.51.51,0,0,1,.68-.19l98.78,56.51a.5.5,0,0,1,.19.68A.49.49,0,0,1,307.45,257.87Z" fill="#231f20"></path><path d="M143,198.76s4.37,11.38,5.4,12,13.2,5.6,12.33,7.93-6.35-.51-6.35-.51,7.89,9.13,5.81,10.74-9.08,4.88-11.89,3.55-16.82-18.69-19.79-26.23" fill="#fff"></path><path d="M150,233.31a4.48,4.48,0,0,1-1.9-.36c-3-1.43-17.1-19-20.05-26.5a.5.5,0,0,1,.94-.36c3,7.69,17.1,24.8,19.53,26s9.26-1.84,11.38-3.49a.47.47,0,0,0,.15-.33c.19-2-4.3-7.67-6-9.69a.5.5,0,0,1,.61-.77c1,.52,3.86,1.76,5.14,1.27a.82.82,0,0,0,.51-.5c.24-.65-1.34-2.28-10.25-6.41-1.08-.5-1.65-.77-1.88-.92-1.08-.69-4.56-9.57-5.6-12.27a.5.5,0,0,1,.29-.65.5.5,0,0,1,.64.29c2.08,5.41,4.6,11.3,5.22,11.8.17.11.9.45,1.75.84,7.18,3.32,11.48,5.77,10.77,7.67a1.84,1.84,0,0,1-1.09,1.09,6.48,6.48,0,0,1-4-.46c1.93,2.41,5.12,6.74,4.92,8.8a1.44,1.44,0,0,1-.53,1C158.9,230.61,153.58,233.31,150,233.31Z" fill="#231f20"></path><path d="M161.75,111c-25.72,16.52-57,40.83-59.64,46.51-4.22,9,27.34,54.26,27.34,54.26l17.09-10.84L130.92,167l30.8-20.95" fill="#8c8c8c"></path><path d="M142,160a.45.45,0,0,1-.38-.19.47.47,0,0,1,.11-.64l34.58-24.21a.45.45,0,0,1,.64.11.46.46,0,0,1-.12.64l-34.57,24.21A.42.42,0,0,1,142,160Z" fill="#231f20"></path><polygon points="292.25 228.61 334.16 202.96 298.65 217.75 292.25 228.61" fill="#231f20"></polygon><path d="M292.25,229.11a.49.49,0,0,1-.35-.15.5.5,0,0,1-.08-.61l6.4-10.85a.47.47,0,0,1,.23-.21L334,202.5a.5.5,0,0,1,.45.89L292.51,229A.59.59,0,0,1,292.25,229.11Zm6.74-11-5.29,9,34.69-21.23Z" fill="#231f20"></path><polygon points="298.65 217.75 312.35 224.76 334.16 202.96 298.65 217.75" fill="#fff"></polygon><path d="M312.35,225.21a.41.41,0,0,1-.21-.05l-13.7-7a.44.44,0,0,1-.25-.42.48.48,0,0,1,.28-.41L334,202.54a.46.46,0,0,1,.55.17.44.44,0,0,1-.06.57l-21.81,21.8A.42.42,0,0,1,312.35,225.21Zm-12.62-7.41,12.53,6.4,19.94-19.93Z" fill="#231f20"></path><polygon points="334.16 202.96 289.04 213.74 278.78 207.87 334.16 202.96" fill="#fff"></polygon><path d="M289,214.19a.43.43,0,0,1-.22-.06l-10.27-5.86a.46.46,0,0,1,.19-.85l55.38-4.91a.46.46,0,0,1,.49.38.46.46,0,0,1-.34.52l-45.12,10.77Zm-8.77-6,8.84,5.05L328,204Z" fill="#231f20"></path><polygon points="289.04 213.74 292.25 228.61 298.65 217.75 334.16 202.96 289.04 213.74" fill="#fff"></polygon><path d="M292.25,229.07h-.07a.46.46,0,0,1-.38-.35l-3.2-14.88a.45.45,0,0,1,.34-.54l45.12-10.77a.45.45,0,0,1,.28.86L299,218.12l-6.32,10.72A.45.45,0,0,1,292.25,229.07Zm-2.67-15,2.87,13.29,5.8-9.85a.51.51,0,0,1,.22-.19l30.26-12.6Z" fill="#231f20"></path><path d="M283,230.68a.5.5,0,0,1-.26-.92l1.67-1.07a.5.5,0,0,1,.55.84l-1.69,1.08A.54.54,0,0,1,283,230.68Z" fill="#d1d3d4"></path><path d="M131.62,276.5a.51.51,0,0,1-.5-.5.5.5,0,0,1,.49-.5l2.38-.05,1.61-.05a.52.52,0,0,1,.52.48.5.5,0,0,1-.49.52l-1.61.05-2.39.05Zm-4,0h0c-1.36,0-2.7-.06-4-.11a.51.51,0,0,1-.48-.52.5.5,0,0,1,.52-.48c1.3.05,2.63.09,4,.11a.5.5,0,0,1,.5.5A.51.51,0,0,1,127.63,276.5Zm12-.27a.49.49,0,0,1-.49-.47.5.5,0,0,1,.47-.53c1.33-.06,2.66-.14,4-.23a.49.49,0,0,1,.53.47.49.49,0,0,1-.46.53c-1.33.09-2.66.17-4,.23Zm-19.95-.07h0c-1.36-.1-2.69-.22-4-.36a.5.5,0,0,1-.44-.55.48.48,0,0,1,.55-.44c1.29.13,2.61.25,4,.35a.5.5,0,0,1,0,1Zm27.93-.45a.5.5,0,0,1,0-1c1.33-.11,2.65-.23,4-.36a.52.52,0,0,1,.55.45.5.5,0,0,1-.45.55q-2,.19-4,.36Zm-35.88-.41h-.07c-1.34-.2-2.67-.42-4-.66a.5.5,0,1,1,.19-1c1.27.24,2.59.46,3.92.65a.5.5,0,0,1,.42.57A.51.51,0,0,1,111.7,275.3Zm43.84-.36a.5.5,0,0,1-.06-1q2-.22,4-.48a.5.5,0,0,1,.13,1l-4,.47Zm7.93-1a.51.51,0,0,1-.5-.43.5.5,0,0,1,.43-.57l3.94-.59a.49.49,0,0,1,.57.41.5.5,0,0,1-.41.58l-4,.59Zm-59.61-.1-.12,0c-1.33-.31-2.64-.65-3.89-1a.51.51,0,0,1-.34-.62.5.5,0,0,1,.62-.34c1.24.35,2.53.69,3.84,1a.49.49,0,0,1,.37.6A.5.5,0,0,1,103.86,273.83Zm67.5-1.15a.49.49,0,0,1-.49-.41.51.51,0,0,1,.41-.58l3.93-.7a.49.49,0,0,1,.58.4.5.5,0,0,1-.4.58l-3.94.71ZM96.19,271.6a.45.45,0,0,1-.16,0c-1.28-.45-2.55-.94-3.76-1.45a.5.5,0,0,1-.26-.66.5.5,0,0,1,.65-.26c1.19.5,2.44,1,3.7,1.43a.5.5,0,0,1-.17,1Zm83-.38a.51.51,0,0,1-.49-.4.5.5,0,0,1,.39-.59l3.91-.82a.5.5,0,0,1,.59.39.49.49,0,0,1-.38.59l-3.92.82Zm7.82-1.68a.5.5,0,0,1-.11-1c1.3-.3,2.59-.6,3.88-.92a.5.5,0,0,1,.6.37.5.5,0,0,1-.37.61c-1.29.31-2.58.62-3.89.91Zm-98.19-1.07a.53.53,0,0,1-.23-.06c-1.21-.62-2.39-1.29-3.51-2a.5.5,0,0,1-.16-.69.49.49,0,0,1,.69-.16c1.09.67,2.25,1.32,3.44,1.93a.5.5,0,0,1-.23,1Zm106-.82a.5.5,0,0,1-.12-1l3.86-1a.5.5,0,1,1,.26,1q-1.92.52-3.87,1A.27.27,0,0,1,194.8,267.65Zm7.72-2.09a.49.49,0,0,1-.48-.36.51.51,0,0,1,.35-.62l3.83-1.11a.5.5,0,0,1,.62.33.49.49,0,0,1-.34.62c-1.27.38-2.55.76-3.84,1.12A.34.34,0,0,1,202.52,265.56ZM82.07,264.27a.49.49,0,0,1-.3-.1c-1.09-.81-2.14-1.67-3.12-2.56a.5.5,0,0,1,0-.71.49.49,0,0,1,.7,0,39.42,39.42,0,0,0,3.05,2.5.5.5,0,0,1,.1.7A.51.51,0,0,1,82.07,264.27Zm128.11-1a.48.48,0,0,1-.47-.35.5.5,0,0,1,.33-.63c1.28-.39,2.54-.8,3.8-1.2a.49.49,0,0,1,.63.32.5.5,0,0,1-.32.63c-1.26.41-2.53.81-3.82,1.21A.39.39,0,0,1,210.18,263.28Zm7.61-2.47a.5.5,0,0,1-.16-1c1.27-.43,2.53-.86,3.77-1.3a.51.51,0,0,1,.64.31.49.49,0,0,1-.3.63c-1.25.44-2.51.88-3.79,1.31Zm-141.61-1.9a.52.52,0,0,1-.38-.17,36,36,0,0,1-2.52-3.16.5.5,0,1,1,.81-.58,34.09,34.09,0,0,0,2.46,3.07.51.51,0,0,1,0,.71A.5.5,0,0,1,76.18,258.91Zm149.15-.74a.52.52,0,0,1-.47-.33.5.5,0,0,1,.3-.64c1.27-.46,2.51-.93,3.75-1.39a.5.5,0,0,1,.35.93c-1.24.47-2.49.93-3.76,1.39A.33.33,0,0,1,225.33,258.17Zm7.48-2.83a.5.5,0,0,1-.18-1l3.71-1.47a.5.5,0,0,1,.65.27.51.51,0,0,1-.27.66L233,255.31A.63.63,0,0,1,232.81,255.34ZM71.56,252.41a.49.49,0,0,1-.44-.26,34.93,34.93,0,0,1-1.75-3.65.5.5,0,0,1,.93-.38,31.23,31.23,0,0,0,1.7,3.55.51.51,0,0,1-.2.68A.53.53,0,0,1,71.56,252.41Zm168.67-.07a.48.48,0,0,1-.46-.31.5.5,0,0,1,.26-.65c1.25-.52,2.48-1,3.68-1.56a.5.5,0,1,1,.4.92l-3.69,1.56A.43.43,0,0,1,240.23,252.34Zm7.34-3.17a.52.52,0,0,1-.46-.29.49.49,0,0,1,.26-.66c1.24-.56,2.45-1.1,3.63-1.65a.5.5,0,1,1,.42.91c-1.19.55-2.4,1.1-3.65,1.65A.45.45,0,0,1,247.57,249.17Zm7.27-3.34a.48.48,0,0,1-.45-.28.5.5,0,0,1,.23-.67c1.24-.58,2.44-1.16,3.6-1.73a.5.5,0,0,1,.44.9l-3.61,1.74A.52.52,0,0,1,254.84,245.83ZM68.54,245a.5.5,0,0,1-.48-.37,36.49,36.49,0,0,1-.88-3.95.5.5,0,0,1,1-.16A35,35,0,0,0,69,244.4a.5.5,0,0,1-.34.62ZM262,242.33a.49.49,0,0,1-.45-.28.5.5,0,0,1,.22-.67c1.23-.62,2.42-1.22,3.56-1.82a.5.5,0,0,1,.46.89c-1.14.59-2.33,1.2-3.57,1.82A.46.46,0,0,1,262,242.33Zm7.1-3.69a.49.49,0,0,1-.44-.26.51.51,0,0,1,.2-.68c1.24-.66,2.41-1.3,3.51-1.9a.5.5,0,1,1,.48.87c-1.1.61-2.27,1.25-3.52,1.92A.46.46,0,0,1,269.13,238.64Zm-201.9-1.47a.5.5,0,0,1-.5-.47c0-.78-.06-1.58-.06-2.37,0-.56,0-1.12,0-1.67a.49.49,0,0,1,.52-.48.5.5,0,0,1,.48.52c0,.54,0,1.09,0,1.63,0,.77,0,1.55.06,2.31a.5.5,0,0,1-.47.53Zm208.9-2.4a.5.5,0,0,1-.25-.93c1.29-.74,2.45-1.41,3.45-2a.5.5,0,0,1,.69.17.51.51,0,0,1-.17.69c-1,.6-2.17,1.28-3.47,2A.54.54,0,0,1,276.13,234.77ZM67.55,229.2h-.07a.51.51,0,0,1-.43-.57c.18-1.31.41-2.65.71-4a.51.51,0,0,1,.6-.38.5.5,0,0,1,.38.6c-.29,1.29-.53,2.6-.7,3.89A.5.5,0,0,1,67.55,229.2Zm1.74-7.79a.39.39,0,0,1-.15,0,.5.5,0,0,1-.33-.63c.39-1.26.85-2.54,1.36-3.8a.5.5,0,0,1,.92.38c-.49,1.23-.94,2.48-1.33,3.72A.48.48,0,0,1,69.29,221.41Zm3-7.4A.46.46,0,0,1,72,214a.5.5,0,0,1-.23-.67c.59-1.19,1.24-2.38,1.93-3.54a.49.49,0,0,1,.68-.18.51.51,0,0,1,.18.69c-.68,1.13-1.31,2.3-1.89,3.48A.51.51,0,0,1,72.26,214Zm4.07-6.88A.52.52,0,0,1,76,207a.49.49,0,0,1-.12-.69c.76-1.1,1.58-2.19,2.42-3.23a.5.5,0,0,1,.7-.07.5.5,0,0,1,.08.7c-.83,1-1.63,2.09-2.38,3.17A.51.51,0,0,1,76.33,207.13Zm5-6.2a.49.49,0,0,1-.36-.84c.92-1,1.89-1.92,2.89-2.82a.49.49,0,0,1,.7,0,.5.5,0,0,1,0,.71c-1,.88-1.93,1.81-2.83,2.77A.51.51,0,0,1,81.36,200.93Z" fill="#d1d3d4"></path><path d="M87.34,195.54a.49.49,0,0,1-.39-.19.51.51,0,0,1,.09-.71c.54-.4,1.08-.8,1.63-1.19a.5.5,0,1,1,.57.82q-.81.57-1.59,1.17A.5.5,0,0,1,87.34,195.54Z" fill="#d1d3d4"></path><path d="M311.6,135.79a.45.45,0,0,1-.34-.14.49.49,0,0,1,0-.7s.49-.52,1.34-1.46a.5.5,0,1,1,.74.66c-.86,1-1.36,1.49-1.36,1.49A.49.49,0,0,1,311.6,135.79Z" fill="#d1d3d4"></path><path d="M315.6,131.28a.52.52,0,0,1-.33-.12.49.49,0,0,1,0-.7c.77-.92,1.63-2,2.55-3.11a.5.5,0,0,1,.7-.08.49.49,0,0,1,.08.7c-.92,1.16-1.79,2.21-2.57,3.13A.49.49,0,0,1,315.6,131.28Zm5-6.3a.57.57,0,0,1-.3-.1.51.51,0,0,1-.09-.71c.77-1,1.57-2.1,2.38-3.23a.5.5,0,0,1,.82.58c-.82,1.14-1.62,2.23-2.41,3.26A.49.49,0,0,1,320.64,125Zm4.7-6.57a.49.49,0,0,1-.41-.78c.73-1.09,1.47-2.21,2.19-3.37a.51.51,0,0,1,.69-.16.5.5,0,0,1,.15.69c-.69,1.11-1.43,2.25-2.2,3.4A.5.5,0,0,1,325.34,118.41Zm4.28-6.84a.45.45,0,0,1-.25-.07.49.49,0,0,1-.18-.68c.68-1.18,1.33-2.37,1.92-3.52a.5.5,0,0,1,.89.46c-.6,1.17-1.26,2.36-1.95,3.56A.5.5,0,0,1,329.62,111.57Zm3.71-7.17a.52.52,0,0,1-.21,0,.49.49,0,0,1-.24-.66c.57-1.25,1.1-2.49,1.56-3.69a.5.5,0,0,1,.65-.29.51.51,0,0,1,.29.65c-.48,1.22-1,2.48-1.59,3.74A.52.52,0,0,1,333.33,104.4Zm2.91-7.52-.15,0a.51.51,0,0,1-.33-.63c.4-1.31.74-2.61,1-3.86a.5.5,0,0,1,.59-.38.51.51,0,0,1,.39.59c-.28,1.28-.62,2.61-1,4A.51.51,0,0,1,336.24,96.88ZM337.88,89h-.05a.5.5,0,0,1-.45-.54c0-.42.08-.83.1-1.25,0-.93.09-1.85.12-2.74a.49.49,0,0,1,.51-.49.51.51,0,0,1,.49.51c0,.91-.07,1.83-.12,2.78,0,.43-.06.85-.1,1.28A.51.51,0,0,1,337.88,89Zm.23-8.06a.5.5,0,0,1-.5-.49c0-1.36-.1-2.7-.2-4a.49.49,0,0,1,.46-.53.5.5,0,0,1,.54.46c.1,1.31.17,2.67.2,4.05a.51.51,0,0,1-.49.51Zm-.65-8a.51.51,0,0,1-.5-.43c-.19-1.34-.44-2.66-.73-3.92a.5.5,0,0,1,1-.22c.29,1.28.54,2.63.74,4a.51.51,0,0,1-.42.57Zm-1.81-7.84a.5.5,0,0,1-.48-.34,36,36,0,0,0-1.43-3.7.5.5,0,0,1,.91-.42,36.7,36.7,0,0,1,1.47,3.81.5.5,0,0,1-.31.63A.47.47,0,0,1,335.65,65.07Zm-3.34-7.31a.51.51,0,0,1-.43-.23,27.92,27.92,0,0,0-2.3-3.22.5.5,0,0,1,.07-.7.49.49,0,0,1,.7.06A29.51,29.51,0,0,1,332.73,57a.49.49,0,0,1-.16.69A.48.48,0,0,1,332.31,57.76Zm-5.14-6.17a.54.54,0,0,1-.33-.12,26.07,26.07,0,0,0-3.14-2.4.5.5,0,1,1,.54-.84,27.37,27.37,0,0,1,3.27,2.49.51.51,0,0,1,0,.71A.51.51,0,0,1,327.17,51.59Zm-6.73-4.37a.54.54,0,0,1-.21,0,29.87,29.87,0,0,0-3.71-1.4.5.5,0,0,1,.29-1,30.35,30.35,0,0,1,3.84,1.44.49.49,0,0,1,.24.66A.49.49,0,0,1,320.44,47.22Zm-7.7-2.35h-.09a33.84,33.84,0,0,0-3.95-.45.5.5,0,0,1-.47-.53.47.47,0,0,1,.53-.47,36,36,0,0,1,4.06.46.51.51,0,0,1,.41.58A.49.49,0,0,1,312.74,44.87Z" fill="#d1d3d4"></path><path d="M302.67,44.61a.5.5,0,0,1-.08-1,18.14,18.14,0,0,1,2-.2.5.5,0,0,1,.06,1c-1.21.07-1.93.18-1.93.18Z" fill="#d1d3d4"></path><rect x="55.39" y="69.79" width="44.02" height="25.07" rx="2.54" transform="translate(-34.63 67.57) rotate(-39.26)" fill="#fff"></rect><path d="M68.66,105.43l-.31,0a3,3,0,0,1-2-1.1L53.65,88.83a3,3,0,0,1,.43-4.27L84.23,59.91a3,3,0,0,1,4.27.43l12.66,15.49a3,3,0,0,1-.43,4.27h0L70.58,104.74A3,3,0,0,1,68.66,105.43Zm17.49-45.2a2.09,2.09,0,0,0-1.29.45L54.71,85.33A2,2,0,0,0,54,86.7a2.09,2.09,0,0,0,.45,1.5l12.66,15.48a2,2,0,0,0,1.37.74,2.06,2.06,0,0,0,1.49-.45L100.1,79.32a2,2,0,0,0,.29-2.86L87.73,61A2,2,0,0,0,86.15,60.23Zm14.26,19.48h0Z" fill="#d1d3d4"></path><path d="M53.5,87A.5.5,0,0,1,53,86.5a.49.49,0,0,1,.45-.54l25.13-2.18,7.14-24.19a.49.49,0,0,1,.62-.34.5.5,0,0,1,.33.62L79.45,84.39a.49.49,0,0,1-.43.36L53.55,87Z" fill="#d1d3d4"></path><path d="M80,81.16a.5.5,0,0,1,0-1l21.26-2.43a.51.51,0,0,1,.55.44.5.5,0,0,1-.44.56L80.09,81.16Z" fill="#d1d3d4"></path><path d="M68.63,105.43a.4.4,0,0,1-.15,0,.49.49,0,0,1-.32-.63l6.61-20.35a.5.5,0,1,1,1,.31l-6.61,20.35A.51.51,0,0,1,68.63,105.43Z" fill="#d1d3d4"></path><rect x="320.43" y="161.33" width="35.39" height="20.16" rx="2.04" transform="translate(96.07 -120.34) rotate(23.44)" fill="#fff"></rect><path d="M349.29,187.56a2.58,2.58,0,0,1-1-.21l-28.72-12.46a2.51,2.51,0,0,1-1.36-1.39,2.58,2.58,0,0,1,0-1.95l6.39-14.75a2.55,2.55,0,0,1,3.34-1.32l28.73,12.45a2.54,2.54,0,0,1,1.35,1.4,2.51,2.51,0,0,1,0,1.94L351.62,186a2.52,2.52,0,0,1-1.39,1.35A2.57,2.57,0,0,1,349.29,187.56ZM327,156.27a1.54,1.54,0,0,0-1.41.93L319.15,172a1.53,1.53,0,0,0,.8,2l28.73,12.46h0a1.56,1.56,0,0,0,1.18,0,1.5,1.5,0,0,0,.84-.82l6.4-14.76a1.53,1.53,0,0,0,0-1.17,1.49,1.49,0,0,0-.82-.85L327.57,156.4A1.42,1.42,0,0,0,327,156.27Z" fill="#d1d3d4"></path><path d="M337.33,173.74a.48.48,0,0,1-.42-.23l-11-17.38a.5.5,0,0,1,.85-.53l10.78,17.09,19.85-3.81a.49.49,0,0,1,.59.39.51.51,0,0,1-.4.59l-20.18,3.88Z" fill="#d1d3d4"></path><path d="M349.87,187.47a.51.51,0,0,1-.42-.22L339.87,173a.5.5,0,0,1,.14-.69.49.49,0,0,1,.69.14l9.58,14.29a.51.51,0,0,1-.14.7A.53.53,0,0,1,349.87,187.47Z" fill="#d1d3d4"></path><path d="M318.75,174a.5.5,0,0,1-.5-.42.5.5,0,0,1,.42-.57l17-2.78a.5.5,0,1,1,.16,1l-17,2.78Z" fill="#d1d3d4"></path><rect x="130.08" y="42.24" width="25.87" height="14.74" rx="1.49" transform="translate(22.87 -42.47) rotate(18.34)" fill="#fff"></rect><path d="M152,60.78a2,2,0,0,1-.62-.1h0l-21.73-7.2a2,2,0,0,1-1.15-1,2,2,0,0,1-.11-1.52l3.7-11.16a2,2,0,0,1,2.51-1.27l21.73,7.2a2,2,0,0,1,1.26,2.52l-3.69,11.16A2,2,0,0,1,152,60.78Zm-.31-1.05a1,1,0,0,0,.76,0,1,1,0,0,0,.5-.58L156.66,48a1,1,0,0,0,0-.76,1,1,0,0,0-.57-.5l-21.73-7.2a1,1,0,0,0-.76.06,1,1,0,0,0-.49.57l-3.7,11.16a1.05,1.05,0,0,0,0,.76,1,1,0,0,0,.58.49Z" fill="#d1d3d4"></path><path d="M142.55,51.5a.51.51,0,0,1-.4-.2L133,39.36a.5.5,0,0,1,.79-.61l8.91,11.67,14.12-4a.5.5,0,0,1,.62.35.5.5,0,0,1-.35.61l-14.44,4.14Z" fill="#d1d3d4"></path><path d="M152.57,60.68a.48.48,0,0,1-.39-.19l-7.9-9.78a.5.5,0,1,1,.78-.63l7.9,9.79a.5.5,0,0,1-.08.7A.51.51,0,0,1,152.57,60.68Z" fill="#d1d3d4"></path><path d="M129,52.88a.5.5,0,0,1-.12-1l12.18-3.12a.5.5,0,0,1,.61.36.49.49,0,0,1-.36.6l-12.18,3.13Z" fill="#d1d3d4"></path></g></svg>