<svg id="_270_order_confirmation_outline" data-name="#270_order_confirmation_outline" xmlns="http://www.w3.org/2000/svg" viewBox="0 0 400 300" width="406" height="306" class="illustration styles_illustrationTablet__1DWOa"><polygon points="271.42 58.41 271.42 241.59 128.58 241.59 128.58 80.41 153 58.41 271.42 58.41" fill="#fff"></polygon><path d="M271.42,242.6H128.58a1,1,0,0,1-1-1V80.41a1,1,0,0,1,.33-.74l24.42-22a1,1,0,0,1,.67-.26H271.42a1,1,0,0,1,1,1V241.6A1,1,0,0,1,271.42,242.6Zm-141.84-2H270.42V59.4h-117l-23.8,21.46Z" fill="#093f68"></path><rect x="128.58" y="147.68" width="142.84" height="93.91" fill="#4b4d4d"></rect><path d="M271.42,242.6H128.58a1,1,0,0,1-1-1V147.68a1,1,0,0,1,1-1H271.42a1,1,0,0,1,1,1V241.6A1,1,0,0,1,271.42,242.6Zm-141.84-2H270.42V148.68H129.58Z" fill="#093f68"></path><polygon points="128.59 80.41 153.01 80.41 153.01 58.41 128.59 80.41" fill="#4b4d4d"></polygon><path d="M153,81.41H128.58a1,1,0,0,1-.66-1.74l24.42-22a1,1,0,0,1,1.07-.17,1,1,0,0,1,.6.92v22A1,1,0,0,1,153,81.41Zm-21.82-2H152V60.65Z" fill="#093f68"></path><path d="M228.44,119.45H183.11a1.51,1.51,0,0,1-1.47-1.21l-7.09-36.33H162.38a1.5,1.5,0,0,1,0-3h13.41a1.51,1.51,0,0,1,1.47,1.21l1.26,6.48h56.94a1.5,1.5,0,0,1,1.46,1.85l-7,29.84A1.51,1.51,0,0,1,228.44,119.45Zm-44.09-3h42.9l6.32-26.85H179.11Z" fill="#dfeaef"></path><path d="M195.56,132.47a7.79,7.79,0,1,1,7.79-7.79A7.79,7.79,0,0,1,195.56,132.47Zm0-12.57a4.79,4.79,0,1,0,4.79,4.78A4.79,4.79,0,0,0,195.56,119.9Z" fill="#dfeaef"></path><path d="M216.18,132.47a7.79,7.79,0,1,1,7.78-7.79A7.79,7.79,0,0,1,216.18,132.47Zm0-12.57a4.79,4.79,0,1,0,4.78,4.78A4.79,4.79,0,0,0,216.18,119.9Z" fill="#dfeaef"></path><rect x="195.29" y="211.96" width="63.8" height="13.55" rx="6.31" fill="#ffbc0e"></rect><path d="M252.77,226.5H201.59a7.3,7.3,0,0,1-7.3-7.3v-.93a7.31,7.31,0,0,1,7.3-7.31h51.18a7.32,7.32,0,0,1,7.31,7.31v.93A7.31,7.31,0,0,1,252.77,226.5ZM201.59,213a5.31,5.31,0,0,0-5.3,5.31v.93a5.31,5.31,0,0,0,5.3,5.3h51.18a5.31,5.31,0,0,0,5.31-5.3v-.93a5.31,5.31,0,0,0-5.31-5.31Z" fill="#093f68"></path><circle cx="164.71" cy="182.92" r="21.94" fill="#fff"></circle><path d="M164.71,205.86a22.94,22.94,0,1,1,22.95-22.94A23,23,0,0,1,164.71,205.86Zm0-43.88a20.94,20.94,0,1,0,20.95,20.94A21,21,0,0,0,164.71,162Z" fill="#093f68"></path><path d="M248.18,169.08H234.47a1,1,0,0,1,0-2h13.71a1,1,0,0,1,0,2Z" fill="#fff"></path><path d="M221.79,169.08H198.92a1,1,0,0,1,0-2h22.87a1,1,0,0,1,0,2Z" fill="#fff"></path><path d="M255.45,182.79H198.92a1,1,0,0,1,0-2h56.53a1,1,0,0,1,0,2Z" fill="#fff"></path><path d="M239.72,196.5h-40.8a1,1,0,1,1,0-2h40.8a1,1,0,1,1,0,2Z" fill="#fff"></path><path d="M160.27,194.59l-13.52-14.88a2.8,2.8,0,0,1,.19-4l3.76-3.41a2.79,2.79,0,0,1,4,.19l8.14,9,22.42-20.84a2.79,2.79,0,0,1,3.95.14l3.46,3.72a2.8,2.8,0,0,1-.14,3.95L164.2,194.76A2.76,2.76,0,0,1,160.27,194.59Z" fill="#70cc40"></path><path d="M162.32,196.5h-.16a3.76,3.76,0,0,1-2.63-1.23h0L146,180.39a3.81,3.81,0,0,1,.26-5.37l3.76-3.41a3.8,3.8,0,0,1,5.36.25l7.46,8.22,21.68-20.16a3.81,3.81,0,0,1,5.37.2l3.45,3.72a3.79,3.79,0,0,1-.19,5.37l-28.28,26.28A3.76,3.76,0,0,1,162.32,196.5ZM161,193.92a1.75,1.75,0,0,0,1.23.58,1.79,1.79,0,0,0,1.28-.47l28.28-26.29a1.8,1.8,0,0,0,.09-2.54l-3.46-3.72a1.8,1.8,0,0,0-2.54-.09l-22.42,20.84a1,1,0,0,1-.72.27,1,1,0,0,1-.7-.33l-8.14-9a1.79,1.79,0,0,0-2.54-.12l-3.76,3.41a1.81,1.81,0,0,0-.12,2.54L161,193.92Z" fill="#093f68"></path><path d="M153,140.14h-14a1.5,1.5,0,0,1-1.5-1.5v-14a1.5,1.5,0,0,1,1.5-1.5h14a1.51,1.51,0,0,1,1.5,1.5v14A1.5,1.5,0,0,1,153,140.14Zm-12.46-3h11v-11h-11Z" fill="#dfeaef"></path><path d="M262.86,138.45H234.47a1.5,1.5,0,1,1,0-3h28.39a1.5,1.5,0,0,1,0,3Z" fill="#dfeaef"></path><path d="M258.2,69H247.83a1.5,1.5,0,0,1,0-3H258.2a1.5,1.5,0,0,1,0,3Z" fill="#dfeaef"></path><path d="M240.65,69h-6.18a1.5,1.5,0,0,1,0-3h6.18a1.5,1.5,0,0,1,0,3Z" fill="#dfeaef"></path></svg>