<svg xmlns="http://www.w3.org/2000/svg" viewBox="0 0 400 300" width="406" height="306" class="illustration styles_illustrationTablet__1DWOa"><g id="_329_online_store_outline" data-name="#329_online_store_outline"><path d="M249.79,79.35v141.3a9.9,9.9,0,0,1-10.08,9.7H159.5a9.9,9.9,0,0,1-10.09-9.7V79.35a9.9,9.9,0,0,1,10.09-9.7h80.21A9.9,9.9,0,0,1,249.79,79.35Z" fill="#727272"></path><path d="M239.71,231.35H159.5a10.91,10.91,0,0,1-11.09-10.7V79.35a10.91,10.91,0,0,1,11.09-10.7h80.21a10.91,10.91,0,0,1,11.08,10.7v141.3A10.91,10.91,0,0,1,239.71,231.35ZM159.5,70.65a8.91,8.91,0,0,0-9.09,8.7v141.3a8.91,8.91,0,0,0,9.09,8.7h80.21a8.9,8.9,0,0,0,9.08-8.7V79.35a8.9,8.9,0,0,0-9.08-8.7Z" fill="#093f68"></path><rect x="149.73" y="88.36" width="99.74" height="120.32" fill="#fff"></rect><path d="M249.47,209.68H149.73a1,1,0,0,1-1-1V88.36a1,1,0,0,1,1-1h99.74a1,1,0,0,1,1,1V208.68A1,1,0,0,1,249.47,209.68Zm-98.74-2h97.74V89.36H150.73Z" fill="#093f68"></path><circle cx="215.01" cy="79.97" r="1.56" fill="#093f68"></circle><path d="M207.56,81H182.63a1,1,0,0,1,0-2h24.93a1,1,0,0,1,0,2Z" fill="#093f68"></path><path d="M199.6,225.6a6.68,6.68,0,1,1,6.67-6.67A6.68,6.68,0,0,1,199.6,225.6Zm0-11.35a4.68,4.68,0,1,0,4.67,4.68A4.68,4.68,0,0,0,199.6,214.25Z" fill="#093f68"></path><polygon points="162.05 105.52 137.4 105.52 150.81 88.16 170.18 88.16 162.05 105.52" fill="#f56132"></polygon><path d="M162.05,106.52H137.4a1,1,0,0,1-.9-.56,1,1,0,0,1,.11-1L150,87.55a1,1,0,0,1,.79-.39h19.37a1,1,0,0,1,.84.46,1,1,0,0,1,.07,1L163,105.94A1,1,0,0,1,162.05,106.52Zm-22.61-2h22l7.19-15.36H151.3Z" fill="#093f68"></path><path d="M137.4,105.52h24.65a0,0,0,0,1,0,0v2.06a11.6,11.6,0,0,1-11.6,11.6H149a11.6,11.6,0,0,1-11.6-11.6v-2.06A0,0,0,0,1,137.4,105.52Z" fill="#f56132"></path><path d="M150.46,120.18H149a12.61,12.61,0,0,1-12.6-12.6v-2.06a1,1,0,0,1,1-1h24.65a1,1,0,0,1,1,1v2.06A12.61,12.61,0,0,1,150.46,120.18ZM138.4,106.52v1.06a10.61,10.61,0,0,0,10.6,10.6h1.46a10.61,10.61,0,0,0,10.59-10.6v-1.06Z" fill="#093f68"></path><polygon points="187.19 105.52 162.54 105.52 170.56 88.16 189.93 88.16 187.19 105.52" fill="#fff"></polygon><path d="M187.19,106.52H162.54a1,1,0,0,1-.85-.46,1,1,0,0,1-.06-1l8-17.36a1,1,0,0,1,.91-.58h19.37a1,1,0,0,1,1,1.16l-2.74,17.35A1,1,0,0,1,187.19,106.52Zm-23.09-2h22.24l2.42-15.36H171.2Z" fill="#093f68"></path><path d="M162.54,105.52h24.65a0,0,0,0,1,0,0v2.06a11.6,11.6,0,0,1-11.6,11.6h-1.46a11.6,11.6,0,0,1-11.6-11.6v-2.06A0,0,0,0,1,162.54,105.52Z" fill="#fff"></path><path d="M175.59,120.18h-1.46a12.61,12.61,0,0,1-12.59-12.6v-2.06a1,1,0,0,1,1-1h24.65a1,1,0,0,1,1,1v2.06A12.61,12.61,0,0,1,175.59,120.18Zm-12.05-13.66v1.06a10.61,10.61,0,0,0,10.59,10.6h1.46a10.61,10.61,0,0,0,10.6-10.6v-1.06Z" fill="#093f68"></path><polygon points="212.33 105.52 187.67 105.52 190.31 88.16 209.69 88.16 212.33 105.52" fill="#f56132"></polygon><path d="M212.33,106.52H187.67a1,1,0,0,1-.75-.35,1,1,0,0,1-.23-.8L189.33,88a1,1,0,0,1,1-.85h19.38a1,1,0,0,1,1,.85l2.64,17.36a1,1,0,0,1-.23.8A1,1,0,0,1,212.33,106.52Zm-23.49-2h22.32l-2.33-15.36H191.17Z" fill="#093f68"></path><path d="M187.67,105.52h24.65a0,0,0,0,1,0,0v2.06a11.6,11.6,0,0,1-11.6,11.6h-1.46a11.6,11.6,0,0,1-11.6-11.6v-2.06A0,0,0,0,1,187.67,105.52Z" fill="#f56132"></path><path d="M200.73,120.18h-1.46a12.61,12.61,0,0,1-12.6-12.6v-2.06a1,1,0,0,1,1-1h24.66a1,1,0,0,1,1,1v2.06A12.61,12.61,0,0,1,200.73,120.18Zm-12.06-13.66v1.06a10.62,10.62,0,0,0,10.6,10.6h1.46a10.62,10.62,0,0,0,10.6-10.6v-1.06Z" fill="#093f68"></path><polygon points="237.46 105.52 212.81 105.52 210.07 88.16 229.44 88.16 237.46 105.52" fill="#fff"></polygon><path d="M237.46,106.52H212.81a1,1,0,0,1-1-.85l-2.74-17.35a1,1,0,0,1,1-1.16h19.37a1,1,0,0,1,.91.58l8,17.36a1,1,0,0,1-.06,1A1,1,0,0,1,237.46,106.52Zm-23.8-2H235.9l-7.1-15.36H211.24Z" fill="#093f68"></path><path d="M212.81,105.52h24.65a0,0,0,0,1,0,0v2.06a11.6,11.6,0,0,1-11.6,11.6h-1.46a11.6,11.6,0,0,1-11.6-11.6v-2.06a0,0,0,0,1,0,0Z" fill="#fff"></path><path d="M225.87,120.18h-1.46a12.61,12.61,0,0,1-12.6-12.6v-2.06a1,1,0,0,1,1-1h24.65a1,1,0,0,1,1,1v2.06A12.61,12.61,0,0,1,225.87,120.18Zm-12.06-13.66v1.06a10.61,10.61,0,0,0,10.6,10.6h1.46a10.61,10.61,0,0,0,10.59-10.6v-1.06Z" fill="#093f68"></path><polygon points="262.6 105.52 237.95 105.52 229.82 88.16 249.19 88.16 262.6 105.52" fill="#f56132"></polygon><path d="M262.6,106.52H238a1,1,0,0,1-.91-.58l-8.13-17.36a1,1,0,0,1,.07-1,1,1,0,0,1,.84-.46h19.37a1,1,0,0,1,.79.39l13.41,17.36a1,1,0,0,1,.11,1A1,1,0,0,1,262.6,106.52Zm-24-2h22L248.7,89.16H231.39Z" fill="#093f68"></path><path d="M237.95,105.52H262.6a0,0,0,0,1,0,0v2.06a11.6,11.6,0,0,1-11.6,11.6h-1.46a11.6,11.6,0,0,1-11.6-11.6v-2.06a0,0,0,0,1,0,0Z" fill="#f56132"></path><path d="M251,120.18h-1.46A12.61,12.61,0,0,1,237,107.58v-2.06a1,1,0,0,1,1-1H262.6a1,1,0,0,1,1,1v2.06A12.61,12.61,0,0,1,251,120.18ZM239,106.52v1.06a10.61,10.61,0,0,0,10.59,10.6H251a10.61,10.61,0,0,0,10.6-10.6v-1.06Z" fill="#093f68"></path><polygon points="271.11 230.35 232.25 230.35 235.26 191.48 268.1 191.48 271.11 230.35" fill="#ffbc0e"></polygon><path d="M271.11,231.35H232.25a1,1,0,0,1-.74-.32,1,1,0,0,1-.26-.76l3-38.86a1,1,0,0,1,1-.93H268.1a1,1,0,0,1,1,.93l3,38.86a1.05,1.05,0,0,1-.26.76A1,1,0,0,1,271.11,231.35Zm-37.78-2H270l-2.86-36.87h-31Z" fill="#093f68"></path><path d="M258.71,196.93a1,1,0,0,1-1-1V188.7a6,6,0,1,0-12.06,0v7.23a1,1,0,0,1-2,0V188.7a8,8,0,1,1,16.06,0v7.23A1,1,0,0,1,258.71,196.93Z" fill="#093f68"></path><rect x="124.27" y="200.89" width="42.05" height="29.46" fill="#70cc40"></rect><path d="M166.32,231.35h-42a1,1,0,0,1-1-1V200.89a1,1,0,0,1,1-1h42.05a1,1,0,0,1,1,1v29.46A1,1,0,0,1,166.32,231.35Zm-41-2h40.05V201.89h-40Z" fill="#093f68"></path><rect x="140.28" y="200.89" width="10.03" height="10.03" fill="#ffbc0e"></rect><path d="M150.31,211.92h-10a1,1,0,0,1-1-1v-10a1,1,0,0,1,1-1h10a1,1,0,0,1,1,1v10A1,1,0,0,1,150.31,211.92Zm-9-2h8v-8h-8Z" fill="#093f68"></path><path d="M137.22,225.6h-6.57a1,1,0,0,1,0-2h6.57a1,1,0,0,1,0,2Z" fill="#093f68"></path><rect x="131.29" y="177.24" width="33.75" height="23.65" fill="#f56132"></rect><path d="M165,201.89H131.29a1,1,0,0,1-1-1V177.24a1,1,0,0,1,1-1H165a1,1,0,0,1,1,1v23.65A1,1,0,0,1,165,201.89Zm-32.75-2H164V178.24H132.29Z" fill="#093f68"></path><rect x="144.14" y="177.24" width="8.05" height="8.05" fill="#ffbc0e"></rect><path d="M152.19,186.29h-8.05a1,1,0,0,1-1-1v-8a1,1,0,0,1,1-1h8.05a1,1,0,0,1,1,1v8A1,1,0,0,1,152.19,186.29Zm-7.05-2h6.05v-6h-6.05Z" fill="#093f68"></path><path d="M141.68,197.27h-5.27a1,1,0,0,1,0-2h5.27a1,1,0,0,1,0,2Z" fill="#093f68"></path><rect x="170.99" y="138.43" width="58.02" height="8.26" rx="3.94" fill="#727272"></rect><path d="M225.07,147.69H174.93a5,5,0,0,1-4.94-4.95v-.37a4.94,4.94,0,0,1,4.94-4.94h50.14a4.94,4.94,0,0,1,4.94,4.94v.37A5,5,0,0,1,225.07,147.69Zm-50.14-8.26a2.94,2.94,0,0,0-2.94,2.94v.37a3,3,0,0,0,2.94,2.95h50.14a3,3,0,0,0,2.94-2.95v-.37a2.94,2.94,0,0,0-2.94-2.94Z" fill="#093f68"></path><path d="M216.54,175H183.46a3.68,3.68,0,0,1-3.56-3.06l-4.78-25.21h49.76L220.1,171.9A3.68,3.68,0,0,1,216.54,175Z" fill="#727272"></path><path d="M216.54,176H183.46a4.69,4.69,0,0,1-4.54-3.87l-4.78-25.22a1,1,0,0,1,.21-.82,1,1,0,0,1,.77-.36h49.76a1,1,0,0,1,.77.36,1,1,0,0,1,.21.82l-4.78,25.22A4.69,4.69,0,0,1,216.54,176Zm-40.21-28.27,4.56,24a2.67,2.67,0,0,0,2.57,2.25h33.08a2.67,2.67,0,0,0,2.57-2.25l4.56-24Z" fill="#093f68"></path><rect x="186.94" y="150.47" width="3.85" height="19.15" rx="1.92" fill="#093f68"></rect><path d="M188.86,170.61a2.92,2.92,0,0,1-2.92-2.92v-15.3a2.93,2.93,0,0,1,5.85,0v15.3A2.93,2.93,0,0,1,188.86,170.61Zm0-19.14a.92.92,0,0,0-.92.92v15.3a.93.93,0,0,0,1.85,0v-15.3A.93.93,0,0,0,188.86,151.47Z" fill="#093f68"></path><rect x="198.08" y="150.47" width="3.85" height="19.15" rx="1.92" fill="#093f68"></rect><path d="M200,170.61a2.92,2.92,0,0,1-2.92-2.92v-15.3a2.92,2.92,0,0,1,5.84,0v15.3A2.92,2.92,0,0,1,200,170.61Zm0-19.14a.92.92,0,0,0-.92.92v15.3a.92.92,0,1,0,1.84,0v-15.3A.92.92,0,0,0,200,151.47Z" fill="#093f68"></path><rect x="209.22" y="150.47" width="3.85" height="19.15" rx="1.92" fill="#093f68"></rect><path d="M211.14,170.61a2.93,2.93,0,0,1-2.93-2.92v-15.3a2.93,2.93,0,0,1,5.85,0v15.3A2.92,2.92,0,0,1,211.14,170.61Zm0-19.14a.93.93,0,0,0-.93.92v15.3a.93.93,0,0,0,1.85,0v-15.3A.92.92,0,0,0,211.14,151.47Z" fill="#093f68"></path><path d="M177.84,144a2,2,0,0,1-1.13-3.59l18.69-13a2,2,0,0,1,2.26,3.24L179,143.68A2,2,0,0,1,177.84,144Z" fill="#727272"></path><path d="M177.84,145a3,3,0,0,1-1.7-5.41l18.69-13.05a3,3,0,0,1,3.4,4.88L179.54,144.5A3,3,0,0,1,177.84,145Zm18.69-17a1,1,0,0,0-.56.17l-18.69,13a1,1,0,0,0-.24,1.36,1,1,0,0,0,1.36.24l18.68-13.05a1,1,0,0,0-.38-1.76Z" fill="#093f68"></path><path d="M222.16,144a2,2,0,0,0,1.13-3.59l-18.69-13a2,2,0,0,0-2.26,3.24L221,143.68A2,2,0,0,0,222.16,144Z" fill="#727272"></path><path d="M222.16,145a3,3,0,0,1-1.7-.53l-18.69-13.05a3,3,0,0,1-.73-4.14,3,3,0,0,1,4.13-.74l18.69,13.05a3,3,0,0,1-1.7,5.41Zm-18.69-17h-.17a1,1,0,0,0-.38,1.76l18.68,13.05a1,1,0,0,0,1.36-.24,1,1,0,0,0-.24-1.36l-18.69-13A1,1,0,0,0,203.47,128Z" fill="#093f68"></path><rect x="170.01" y="184.51" width="59.98" height="13.96" rx="6.98" fill="#fff"></rect><path d="M223,199.46H177a8,8,0,1,1,0-16h46a8,8,0,1,1,0,16Zm-46-14a6,6,0,1,0,0,12h46a6,6,0,1,0,0-12Z" fill="#dfeaef"></path></g></svg>